:FULLY-SPECIFIED
:FORCE-ALL-JOINTS-BE-3DOF
:DEGREES
1019
root 1.14696 15.1605 32.4371 4.83691 -3.36327 3.56934
lfemur 8.39256 0.39895 5.73687
ltibia -3.70448e-15 0 0
lfoot -30.1336 -10.9848 -1.91494e-06
ltoes -34.4263 0 0
rfemur -31.5169 -15.9666 -6.03107
rtibia 50.1724 -0 0
rfoot -22.4292 4.58802 -1.34934e-06
rtoes -42.7455 0 0
lowerback -1.4233 -0.170363 0.314653
upperback -0.504158 -0.214656 -5.91728
thorax 0.256025 -0.113744 -6.31638
lowerneck -7.2232 0.910985 6.20581
upperneck 1.60462 0.532377 3.44283
head 1.73937 0.398291 0.0510079
lclavicle -9.30057e-15 1.98483e-14 -4.87476e-31
lhumerus -58.5745 -46.3768 115.191
lradius 55.7419 -0 0
lwrist 25.3044 0 0
lhand 37.2363 24.8869 -2.40752e-05
lfingers 7.12502 -0 0
lthumb 60.0674 38.5964 -8.55719e-06
rclavicle -9.30057e-15 1.98483e-14 -4.87476e-31
rhumerus 2.7661 -23.8396 0.285146
rradius 27.6862 -0 0
rwrist -10.2905 0 0
rhand -30.7281 -42.932 -1.87802e-05
rfingers 7.12502 -0 0
rthumb -4.02057 -72.874 -1.78003e-05
1020
root 1.14706 15.1603 32.4395 4.83986 -3.36333 3.5553
lfemur 8.40114 0.400748 5.75141
ltibia 1.95189e-15 -0 0
lfoot -30.1373 -10.9793 -2.46316e-06
ltoes -34.4365 0 0
rfemur -31.5179 -15.9551 -6.02053
rtibia 50.1827 -0 0
rfoot -22.399 4.62753 -1.32907e-05
rtoes -42.672 0 0
lowerback -1.43233 -0.161287 0.294767
upperback -0.510572 -0.202235 -5.92399
thorax 0.25593 -0.107581 -6.3119
lowerneck -7.22557 0.906377 6.2317
upperneck 1.62977 0.522126 3.45293
head 1.748 0.394532 0.0495172
lclavicle -1.02108e-14 7.1539e-15 -2.20254e-31
lhumerus -58.6002 -46.4036 115.215
lradius 55.7553 -0 0
lwrist 25.2995 0 0
lhand 37.2363 24.9176 -2.1527e-05
lfingers 7.12502 -0 0
lthumb 60.0674 38.627 -7.25614e-06
rclavicle -1.02108e-14 7.1539e-15 -2.20254e-31
rhumerus 2.75563 -23.8349 0.282946
rradius 27.6799 -0 0
rwrist -10.2617 0 0
rhand -30.7231 -42.8746 -1.43992e-05
rfingers 7.12502 -0 0
rthumb -4.01576 -72.8168 -1.36132e-05
1021
root 1.14726 15.1602 32.4419 4.84282 -3.36612 3.54224
lfemur 8.41148 0.404949 5.7644
ltibia 6.68099e-15 -0 0
lfoot -30.1412 -10.9755 -2.42414e-06
ltoes -34.4445 0 0
rfemur -31.5197 -15.9442 -6.01113
rtibia 50.1924 -0 0
rfoot -22.3688 4.6721 -2.05733e-05
rtoes -42.5938 0 0
lowerback -1.44167 -0.152079 0.274435
upperback -0.517016 -0.189621 -5.93102
thorax 0.255997 -0.101321 -6.30749
lowerneck -7.22638 0.90226 6.25719
upperneck 1.65325 0.512708 3.46469
head 1.75581 0.391154 0.0486463
lclavicle -1.07347e-14 -4.65496e-15 1.3343e-31
lhumerus -58.6259 -46.4319 115.241
lradius 55.7663 -0 0
lwrist 25.2936 0 0
lhand 37.2369 24.9469 -1.4541e-05
lfingers 7.12502 -0 0
lthumb 60.0679 38.6557 -3.99289e-06
rclavicle -1.07347e-14 -4.65496e-15 1.3343e-31
rhumerus 2.74635 -23.8312 0.27893
rradius 27.6721 -0 0
rwrist -10.2333 0 0
rhand -30.7179 -42.8203 -6.84978e-06
rfingers 7.12502 -0 0
rthumb -4.01072 -72.7627 -6.41874e-06
1022
root 1.14765 15.1601 32.4445 4.84488 -3.37019 3.5309
lfemur 8.4236 0.409852 5.77496
ltibia 9.92644e-15 -0 0
lfoot -30.1452 -10.974 -1.62341e-06
ltoes -34.4497 0 0
rfemur -31.5204 -15.9371 -6.00437
rtibia 50.2007 -0 0
rfoot -22.3394 4.72365 -1.7914e-05
rtoes -42.5118 0 0
lowerback -1.45173 -0.143114 0.254145
upperback -0.5222 -0.177243 -5.93861
thorax 0.257733 -0.0951364 -6.30371
lowerneck -7.22493 0.89841 6.28148
upperneck 1.67204 0.504146 3.47719
head 1.76167 0.388025 0.048226
lclavicle -1.06515e-14 -1.35475e-14 2.97249e-31
lhumerus -58.6479 -46.4602 115.265
lradius 55.7742 -0 0
lwrist 25.2882 0 0
lhand 37.2395 24.9737 -6.00377e-06
lfingers 7.12502 -0 0
lthumb 60.0701 38.6803 -6.97937e-07
rclavicle -1.06515e-14 -1.35475e-14 2.97249e-31
rhumerus 2.73756 -23.8282 0.274761
rradius 27.662 -0 0
rwrist -10.2039 0 0
rhand -30.7111 -42.7722 -2.81815e-07
rfingers 7.12502 -0 0
rthumb -4.00417 -72.7148 -1.89041e-07
1023
root 1.14832 15.1599 32.4472 4.84514 -3.37411 363.522
lfemur 8.43757 0.413753 5.78224
ltibia 1.11319e-14 0 0
lfoot -30.1494 -10.9756 0
ltoes -34.4515 0 0
rfemur -31.5177 -15.9368 -6.00177
rtibia 50.2068 0 0
rfoot -22.3119 4.78409 0
rtoes -42.4268 0 0
lowerback -1.4629 -0.134767 0.234384
upperback -0.524829 -0.165532 -5.94701
thorax 0.262641 -0.0892001 -6.30112
lowerneck -7.22052 0.894607 6.30376
upperneck 1.68308 0.496466 3.48946
head 1.76447 0.385014 0.0480874
lclavicle -9.74045e-15 -1.74931e-14 0
lhumerus -58.6625 -46.4871 115.282
lradius 55.7781 0 0
lwrist 25.2854 0 0
lhand 37.2456 24.9973 0
lfingers 7.12502 0 0
lthumb 60.0753 38.6983 0
rclavicle -9.74045e-15 -1.74931e-14 0
rhumerus 2.72856 -23.8255 0.272099
rradius 27.6485 0 0
rwrist -10.1722 0 0
rhand -30.7015 -42.7332 0
rfingers 7.12502 0 0
rthumb -3.99486 -792.676 0
1024
root 1.14923 15.1597 32.4501 4.84319 -3.37992 3.51564
lfemur 8.45521 0.418288 5.78601
ltibia 9.35617e-15 -0 0
lfoot -30.1534 -10.9805 8.18835e-07
ltoes -34.4496 0 0
rfemur -31.5123 -15.9421 -6.00328
rtibia 50.2108 -0 0
rfoot -22.2855 4.85629 3.19382e-05
rtoes -42.3349 0 0
lowerback -1.47538 -0.126466 0.214739
upperback -0.525049 -0.153714 -5.95691
thorax 0.270765 -0.083126 -6.3002
lowerneck -7.21232 0.89105 6.32468
upperneck 1.68726 0.489821 3.50378
head 1.76433 0.38228 0.0488394
lclavicle -7.56135e-15 -1.52213e-14 -9.4125e-31
lhumerus -58.6693 -46.5138 115.294
lradius 55.7758 -0 0
lwrist 25.2818 0 0
lhand 37.2564 25.0175 4.14669e-06
lfingers 7.12502 -0 0
lthumb 60.0845 38.7088 -1.7416e-06
rclavicle -7.56135e-15 -1.52213e-14 -9.4125e-31
rhumerus 2.71983 -23.8231 0.268628
rradius 27.63 -0 0
rwrist -10.137 0 0
rhand -30.6877 -42.705 -2.69883e-06
rfingers 7.12502 -0 0
rthumb -3.98156 -72.648 -2.68351e-06
1025
root 1.1503 15.1596 32.4532 4.83969 -3.38959 3.51119
lfemur 8.47709 0.425515 5.78698
ltibia 4.78007e-15 -0 0
lfoot -30.157 -10.9882 -1.35941e-07
ltoes -34.4446 0 0
rfemur -31.5063 -15.9497 -6.00754
rtibia 50.2133 -0 0
rfoot -22.2589 4.93948 6.32009e-05
rtoes -42.234 0 0
lowerback -1.48887 -0.117686 0.194637
upperback -0.524058 -0.141149 -5.96833
thorax 0.280781 -0.0766315 -6.30063
lowerneck -7.20069 0.888 6.34519
upperneck 1.68757 0.484241 3.52174
head 1.7623 0.379994 0.0508355
lclavicle -4.16375e-15 -8.11372e-15 -2.13181e-30
lhumerus -58.6717 -46.5419 115.304
lradius 55.7672 -0 0
lwrist 25.2746 0 0
lhand 37.2707 25.035 8.46126e-06
lfingers 7.12502 -0 0
lthumb 60.0968 38.7133 -3.6145e-06
rclavicle -4.16375e-15 -8.11372e-15 -2.13181e-30
rhumerus 2.71212 -23.8212 0.2621
rradius 27.6067 -0 0
rwrist -10.0993 0 0
rhand -30.6705 -42.6854 -2.55895e-06
rfingers 7.12502 -0 0
rthumb -3.96498 -72.6287 -2.64025e-06
1026
root 1.15154 15.1595 32.4564 4.83536 -3.40153 3.50832
lfemur 8.50137 0.43437 5.78565
ltibia -1.46976e-15 0 0
lfoot -30.1606 -10.9982 -1.89169e-06
ltoes -34.4369 0 0
rfemur -31.4997 -15.96 -6.01411
rtibia 50.2146 -0 0
rfoot -22.2328 5.03017 8.2927e-05
rtoes -42.1278 0 0
lowerback -1.50305 -0.108876 0.17433
upperback -0.522143 -0.128465 -5.98049
thorax 0.292145 -0.0700449 -6.30172
lowerneck -7.18667 0.885329 6.36489
upperneck 1.68414 0.479568 3.54139
head 1.75862 0.378039 0.0535233
lclavicle -6.14275e-17 1.88231e-15 -2.88737e-30
lhumerus -58.671 -46.5709 115.313
lradius 55.7549 -0 0
lwrist 25.2665 0 0
lhand 37.2871 25.0504 1.12612e-05
lfingers 7.12502 -0 0
lthumb 60.1107 38.7138 -4.63848e-06
rclavicle -6.14275e-17 1.88231e-15 -2.88737e-30
rhumerus 2.70522 -23.82 0.254276
rradius 27.5806 -0 0
rwrist -10.0606 0 0
rhand -30.6517 -42.6719 -2.98674e-07
rfingers 7.12502 -0 0
rthumb -3.94678 -72.6154 -5.18697e-07
1027
root 1.15293 15.1593 32.4598 4.83091 -3.41421 3.5067
lfemur 8.52619 0.443787 5.78253
ltibia -8.26667e-15 0 0
lfoot -30.1647 -11.0099 -3.52172e-06
ltoes -34.4268 0 0
rfemur -31.4926 -15.9732 -6.02252
rtibia 50.2149 -0 0
rfoot -22.2075 5.12488 8.51618e-05
rtoes -42.02 0 0
lowerback -1.51759 -0.100486 0.154069
upperback -0.519588 -0.116292 -5.99261
thorax 0.304311 -0.063695 -6.3028
lowerneck -7.17134 0.882909 6.38339
upperneck 1.67713 0.475647 3.56079
head 1.75352 0.3763 0.0563508
lclavicle 4.23186e-15 1.28195e-14 -2.80786e-30
lhumerus -58.6689 -46.5999 115.321
lradius 55.7414 -0 0
lwrist 25.2604 0 0
lhand 37.3039 25.0639 1.17852e-05
lfingers 7.12502 -0 0
lthumb 60.1251 38.7122 -4.15143e-06
rclavicle 4.23186e-15 1.28195e-14 -2.80786e-30
rhumerus 2.69888 -23.8197 0.246921
rradius 27.5537 -0 0
rwrist -10.0224 0 0
rhand -30.6328 -42.6617 3.29483e-06
rfingers 7.12502 -0 0
rthumb -3.9286 -72.6054 2.9438e-06
1028
root 1.15449 15.1592 32.4631 4.82704 -3.42605 3.50599
lfemur 8.54971 0.4527 5.77812
ltibia -1.4484e-14 0 0
lfoot -30.1695 -11.0229 -4.20015e-06
ltoes -34.4149 0 0
rfemur -31.4852 -15.9896 -6.03231
rtibia 50.2145 -0 0
rfoot -22.1837 5.22009 6.89162e-05
rtoes -41.914 0 0
lowerback -1.53216 -0.0929626 0.134105
upperback -0.51668 -0.105261 -6.0039
thorax 0.316734 -0.0579106 -6.3032
lowerneck -7.15575 0.880612 6.4003
upperneck 1.66665 0.472319 3.57798
head 1.74726 0.374662 0.0587655
lclavicle 8.20234e-15 2.27506e-14 -1.93935e-30
lhumerus -58.667 -46.6283 115.328
lradius 55.7292 -0 0
lwrist 25.2588 0 0
lhand 37.3196 25.0761 9.87324e-06
lfingers 7.12502 -0 0
lthumb 60.1385 38.7101 -2.34543e-06
rclavicle 8.20234e-15 2.27506e-14 -1.93935e-30
rhumerus 2.69288 -23.8204 0.241797
rradius 27.5281 -0 0
rwrist -9.98636 0 0
rhand -30.6157 -42.6522 6.47572e-06
rfingers 7.12502 -0 0
rthumb -3.91209 -72.5961 6.06317e-06
1029
root 1.15622 15.159 32.4665 4.82447 -3.43549 3.50587
lfemur 8.57007 0.460044 5.77292
ltibia -1.89952e-14 0 0
lfoot -30.1754 -11.0366 -3.22369e-06
ltoes -34.4014 0 0
rfemur -31.4776 -16.0093 -6.04302
rtibia 50.2137 -0 0
rfoot -22.1619 5.31232 3.79097e-05
rtoes -41.8135 0 0
lowerback -1.54645 -0.0867544 0.114692
upperback -0.513703 -0.0960014 -6.01361
thorax 0.32887 -0.053021 -6.30226
lowerneck -7.14096 0.878312 6.41524
upperneck 1.65284 0.469426 3.59104
head 1.74006 0.373009 0.0602153
lclavicle 1.13362e-14 2.97284e-14 -7.61447e-31
lhumerus -58.6668 -46.6553 115.335
lradius 55.721 -0 0
lwrist 25.2644 0 0
lhand 37.3326 25.0874 5.76265e-06
lfingers 7.12502 -0 0
lthumb 60.1496 38.7096 -3.69618e-07
rclavicle 1.13362e-14 2.97284e-14 -7.61447e-31
rhumerus 2.68696 -23.8223 0.240668
rradius 27.5058 -0 0
rwrist -9.9539 0 0
rhand -30.602 -42.6408 6.43768e-06
rfingers 7.12502 -0 0
rthumb -3.89889 -72.5849 6.11425e-06
1030
root 1.15811 15.1588 32.4698 4.8239 -3.44097 363.506
lfemur 8.58543 0.464751 5.76744
ltibia -2.06736e-14 0 0
lfoot -30.1828 -11.0505 0
ltoes -34.3868 0 0
rfemur -31.4698 -16.0328 -6.0542
rtibia 50.2126 0 0
rfoot -22.1425 5.39807 0
rtoes -41.7222 0 0
lowerback -1.56011 -0.0823089 0.0960802
upperback -0.510942 -0.0891438 -6.02094
thorax 0.340175 -0.0493555 -6.29929
lowerneck -7.12803 0.875883 6.42781
upperneck 1.63585 0.466807 3.598
head 1.73217 0.371226 0.0601479
lclavicle 1.31198e-14 3.18055e-14 0
lhumerus -58.6698 -46.6802 115.341
lradius 55.7193 0 0
lwrist 25.28 0 0
lhand 37.3413 25.0981 0
lfingers 7.12502 0 0
lthumb 60.1571 38.7124 0
rclavicle 1.31198e-14 3.18055e-14 0
rhumerus 2.68091 -23.8255 0.245296
rradius 27.4889 0 0
rwrist -9.9266 0 0
rhand -30.5935 -42.6248 0
rfingers 7.12502 0 0
rthumb -3.89065 -792.569 0
